# xmcd CD database file
#
# Track frame offsets:
#	150
#	14314
#	26745
#	37912
#	50067
#	63700
#	74081
#	86720
#	97824
#	117487
#	129137
#	139154
#	153682
#	169625
#	181941
#	199414
#	212344
#	224999
#
# Disc length: 3387 seconds
#
# Revision: 1
# Processed by: cddbd v1.5.2PL0 Copyright (c) Steve Scherf et al.
# Submitted via: CDex 1.51
#
DISCID=110d3912
DTITLE=Koko Taylor - What It Takes Koko Taylor!
DYEAR=1900
DGENRE=Blues
TTITLE0=Got What It Takes
TTITLE1=Don´t Mess With The Messer
TTITLE2=Whatever I Am, You Made Me
TTITLE3=I´m A Little Mixed Up
TTITLE4=Wang Dang Doodle
TTITLE5=(i Got) All You Need
TTITLE6=Love Me
TTITLE7=What Came First The Egg Or The Hen
TTITLE8=Insane Asylum
TTITLE9=Fire
TTITLE10=I Don´t Care Who Knows
TTITLE11=Twenty Nine Ways (To My Baby´s Door)
TTITLE12=Blue Prelude
TTITLE13=I Need More And More
TTITLE14=Um Huh My Baby
TTITLE15=Bills, Bills and More Bills
TTITLE16=Unknown
TTITLE17=I Got What It Takes (Live Duet with Muddy Waters)
EXTD=
EXTT0=
EXTT1=
EXTT2=
EXTT3=
EXTT4=
EXTT5=
EXTT6=
EXTT7=
EXTT8=
EXTT9=
EXTT10=
EXTT11=
EXTT12=
EXTT13=
EXTT14=
EXTT15=
EXTT16=
EXTT17=
PLAYORDER=
